HIERARCHY
ROOT mug3
{
	OFFSET 0.000000 0.000000 0.000000
	CHANNELS 6 Xposition Yposition Zposition Yrotation Xrotation Zrotation
	End Site
	{
		OFFSET 0.000000 0.000000 0.000000
	}
}
MOTION
Frames: 87
Frame Time: 0.008333334
2.291422 3.549392 2.832817 81.239850 4.042068 -1.207642 
2.291614 3.549572 2.833608 81.219070 4.021580 -1.249603 
2.291464 3.549817 2.834521 81.229460 4.021054 -1.227966 
2.290693 3.549906 2.834938 81.251010 4.008348 -1.206268 
2.289987 3.549867 2.835307 81.266770 4.009317 -1.192841 
2.289101 3.549850 2.835177 81.289040 4.027166 -1.194366 
2.287662 3.549207 2.835013 81.207530 4.097748 -1.155548 
2.286948 3.549220 2.834606 81.170570 4.090736 -1.189331 
2.286632 3.549121 2.833907 81.164520 4.098374 -1.178558 
2.286149 3.549035 2.833436 81.140560 4.088783 -1.129242 
2.286474 3.549253 2.833088 81.175530 4.037921 -1.176392 
2.286800 3.549472 2.832740 81.210530 3.987089 -1.223572 
2.286505 3.549614 2.832414 81.197390 3.958193 -1.216461 
2.286509 3.549535 2.832377 81.198490 3.965055 -1.228729 
2.286512 3.549457 2.832341 81.199600 3.971918 -1.240997 
2.286514 3.549471 2.832583 81.209050 3.973315 -1.234924 
2.286516 3.549486 2.832826 81.218500 3.974712 -1.228851 
2.286382 3.549741 2.832990 81.204530 3.979384 -1.217621 
2.286248 3.549904 2.833111 81.206050 3.947211 -1.184753 
2.285679 3.549740 2.833231 81.187880 3.929410 -1.203613 
2.285421 3.550158 2.833244 81.194350 3.913580 -1.171295 
2.285028 3.550050 2.833464 81.207690 3.917567 -1.202972 
2.284813 3.549988 2.833326 81.209590 3.925076 -1.160919 
2.284681 3.549960 2.833071 81.206010 3.910070 -1.154938 
2.284565 3.550074 2.832714 81.197140 3.921777 -1.180939 
2.284584 3.550013 2.832319 81.193160 3.861253 -1.188141 
2.284470 3.549774 2.831703 81.166630 3.922322 -1.194458 
2.284606 3.549733 2.831258 81.175470 3.892394 -1.173798 
2.284448 3.549696 2.830741 81.151630 3.888316 -1.207947 
2.283692 3.549108 2.830280 81.117830 3.965789 -1.160980 
2.283580 3.549117 2.829931 81.114250 3.995496 -1.162476 
2.283480 3.549085 2.829492 81.095360 3.964462 -1.144135 
2.283463 3.549052 2.829499 81.122130 3.967025 -1.142487 
2.283384 3.549034 2.829564 81.122470 3.977412 -1.154358 
2.283270 3.549175 2.829671 81.117260 3.967399 -1.139343 
2.282824 3.549077 2.829839 81.077630 3.960915 -1.134644 
2.283225 3.549063 2.830018 81.102050 3.976612 -1.140747 
2.283114 3.549199 2.830212 81.101520 3.961721 -1.134552 
2.283042 3.549337 2.830508 81.111320 3.946845 -1.123840 
2.283024 3.549213 2.830697 81.080760 3.965139 -1.126556 
2.282841 3.549434 2.830417 81.092220 3.993587 -1.155457 
2.283299 3.549222 2.830505 81.101620 3.992928 -1.142487 
2.283230 3.549329 2.830492 81.089350 3.951383 -1.144501 
2.283371 3.549252 2.830286 81.123990 3.970099 -1.129700 
2.283391 3.549158 2.830066 81.103980 3.963583 -1.159119 
2.283542 3.549171 2.829903 81.109350 3.970905 -1.143494 
2.283441 3.549226 2.829411 81.082070 3.973381 -1.136566 
2.283613 3.549242 2.829408 81.098890 3.971701 -1.164093 
2.283485 3.549187 2.829062 81.083980 3.968249 -1.132202 
2.283507 3.549081 2.828909 81.082250 3.977474 -1.170441 
2.283436 3.549095 2.828706 81.079150 3.972546 -1.158661 
2.283388 3.549199 2.828789 81.079020 3.984686 -1.145752 
2.283226 3.549067 2.828846 81.055420 3.966079 -1.135529 
2.283470 3.548882 2.828702 81.095920 3.977705 -1.091370 
2.283453 3.549181 2.828969 81.072860 3.972525 -1.144379 
2.283503 3.549155 2.829049 81.084140 3.974301 -1.166168 
2.283385 3.549268 2.829199 81.076650 3.974065 -1.142670 
2.283233 3.549332 2.829327 81.060590 3.962986 -1.143921 
2.283364 3.549266 2.829199 81.086560 3.971948 -1.138214 
2.283361 3.549156 2.829378 81.053980 3.968796 -1.140289 
2.283374 3.549249 2.829090 81.084080 3.980218 -1.141602 
2.283249 3.549315 2.828897 81.076840 4.003596 -1.151703 
2.283386 3.549158 2.828769 81.071760 3.994850 -1.160919 
2.283355 3.549145 2.828585 81.066940 3.993864 -1.159210 
2.283331 3.549056 2.828336 81.074780 3.995463 -1.162964 
2.283203 3.549087 2.828199 81.069870 3.987929 -1.157043 
2.283138 3.549139 2.828114 81.066230 3.982354 -1.167419 
2.283128 3.549149 2.827973 81.066310 3.995991 -1.187897 
2.283081 3.549196 2.827975 81.073910 3.987849 -1.182556 
2.283120 3.549160 2.827911 81.074940 3.989338 -1.178192 
2.283111 3.549132 2.827983 81.077590 3.982455 -1.175262 
2.283109 3.549113 2.827989 81.073300 3.984021 -1.170319 
2.283081 3.549153 2.828145 81.075040 3.980026 -1.171539 
2.283172 3.549113 2.828182 81.069440 3.979696 -1.177368 
2.283237 3.549153 2.828312 81.090450 3.974311 -1.157959 
2.283240 3.549124 2.828282 81.077810 3.988656 -1.173401 
2.283182 3.549089 2.828281 81.086350 3.978336 -1.131165 
2.283102 3.549120 2.828362 81.085050 3.976002 -1.138397 
2.283233 3.549015 2.828301 81.080600 3.979882 -1.151184 
2.283299 3.548966 2.828272 81.110880 3.991774 -1.080933 
2.283329 3.548967 2.828209 81.099330 3.979051 -1.114563 
2.283289 3.549155 2.828254 81.082390 3.982459 -1.172638 
2.283231 3.549107 2.828184 81.079660 3.979838 -1.174011 
2.283510 3.549853 2.827701 81.170790 3.867292 -1.207520 
2.280912 3.548945 2.825343 81.211360 3.971136 -1.133942 
2.278955 3.549092 2.821721 81.479260 3.985316 -1.181183 
2.276158 3.549673 2.816280 81.878730 3.896570 -1.186798 
